<!--?xml version="1.0" encoding="us-ascii" standalone="no"?--><svg xmlns="http://www.w3.org/2000/svg" xmlns:xlink="http://www.w3.org/1999/xlink" contentstyletype="text/css" height="739px" preserveAspectRatio="none" style="width:766px;height:739px;background:#FFFFFF;" version="1.1" viewBox="0 0 766 739" width="766px" zoomAndPan="magnify"><defs></defs><g><ellipse cx="209" cy="20" fill="#222222" rx="10" ry="10" style="stroke:#222222;stroke-width:1.0;"></ellipse><rect fill="#F1F1F1" height="33.9688" rx="12.5" ry="12.5" style="stroke:#181818;stroke-width:0.5;" width="86" x="166" y="50"></rect><text fill="#000000" font-family="sans-serif" font-size="12" lengthAdjust="spacing" textLength="66" x="176" y="71.1387">User Login</text><rect fill="#F1F1F1" height="33.9688" rx="12.5" ry="12.5" style="stroke:#181818;stroke-width:0.5;" width="121" x="148.5" y="152.3711"></rect><text fill="#000000" font-family="sans-serif" font-size="12" lengthAdjust="spacing" textLength="101" x="158.5" y="173.5098">View Dashboard</text><polygon fill="#F1F1F1" points="165,206.3398,253,206.3398,265,218.3398,253,230.3398,165,230.3398,153,218.3398,165,206.3398" style="stroke:#181818;stroke-width:0.5;"></polygon><text fill="#000000" font-family="sans-serif" font-size="11" lengthAdjust="spacing" textLength="88" x="165" y="222.1479">Browse Course</text><text fill="#000000" font-family="sans-serif" font-size="11" lengthAdjust="spacing" textLength="20" x="133" y="215.7456">yes</text><text fill="#000000" font-family="sans-serif" font-size="11" lengthAdjust="spacing" textLength="14" x="265" y="215.7456">no</text><rect fill="#F1F1F1" height="33.9688" rx="12.5" ry="12.5" style="stroke:#181818;stroke-width:0.5;" width="112" x="11" y="240.3398"></rect><text fill="#000000" font-family="sans-serif" font-size="12" lengthAdjust="spacing" textLength="92" x="21" y="261.4785">Access Course</text><polygon fill="#F1F1F1" points="238.25,240.3398,465.25,240.3398,477.25,252.3398,465.25,264.3398,238.25,264.3398,226.25,252.3398,238.25,240.3398" style="stroke:#181818;stroke-width:0.5;"></polygon><text fill="#000000" font-family="sans-serif" font-size="11" lengthAdjust="spacing" textLength="227" x="238.25" y="256.1479">Select Payment Gateway through Stripe</text><text fill="#000000" font-family="sans-serif" font-size="11" lengthAdjust="spacing" textLength="20" x="206.25" y="249.7456">yes</text><text fill="#000000" font-family="sans-serif" font-size="11" lengthAdjust="spacing" textLength="14" x="477.25" y="249.7456">no</text><rect fill="#F1F1F1" height="33.9688" rx="12.5" ry="12.5" style="stroke:#181818;stroke-width:0.5;" width="128" x="152.25" y="274.3398"></rect><text fill="#000000" font-family="sans-serif" font-size="12" lengthAdjust="spacing" textLength="108" x="162.25" y="295.4785">Process Payment</text><polygon fill="#F1F1F1" points="447.75,274.3398,526.75,274.3398,538.75,286.3398,526.75,298.3398,447.75,298.3398,435.75,286.3398,447.75,274.3398" style="stroke:#181818;stroke-width:0.5;"></polygon><text fill="#000000" font-family="sans-serif" font-size="11" lengthAdjust="spacing" textLength="79" x="447.75" y="290.1479">Select Chat AI</text><text fill="#000000" font-family="sans-serif" font-size="11" lengthAdjust="spacing" textLength="20" x="415.75" y="283.7456">yes</text><text fill="#000000" font-family="sans-serif" font-size="11" lengthAdjust="spacing" textLength="14" x="538.75" y="283.7456">no</text><rect fill="#F1F1F1" height="33.9688" rx="12.5" ry="12.5" style="stroke:#181818;stroke-width:0.5;" width="93" x="350" y="308.3398"></rect><text fill="#000000" font-family="sans-serif" font-size="12" lengthAdjust="spacing" textLength="73" x="360" y="329.4785">Chat with AI</text><polygon fill="#F1F1F1" points="517.5,308.3398,638.5,308.3398,650.5,320.3398,638.5,332.3398,517.5,332.3398,505.5,320.3398,517.5,308.3398" style="stroke:#181818;stroke-width:0.5;"></polygon><text fill="#000000" font-family="sans-serif" font-size="11" lengthAdjust="spacing" textLength="121" x="517.5" y="324.1479">Solve Quiz Questions</text><text fill="#000000" font-family="sans-serif" font-size="11" lengthAdjust="spacing" textLength="20" x="485.5" y="317.7456">yes</text><text fill="#000000" font-family="sans-serif" font-size="11" lengthAdjust="spacing" textLength="14" x="650.5" y="317.7456">no</text><rect fill="#F1F1F1" height="33.9688" rx="12.5" ry="12.5" style="stroke:#181818;stroke-width:0.5;" width="45" x="473" y="342.3398"></rect><text fill="#000000" font-family="sans-serif" font-size="12" lengthAdjust="spacing" textLength="25" x="483" y="363.4785">Quiz</text><rect fill="#F1F1F1" height="33.9688" rx="12.5" ry="12.5" style="stroke:#181818;stroke-width:0.5;" width="57" x="632" y="390.7422"></rect><text fill="#000000" font-family="sans-serif" font-size="12" lengthAdjust="spacing" textLength="37" x="642" y="411.8809">Notes</text><polygon fill="#F1F1F1" points="623,342.3398,698,342.3398,710,354.3398,698,366.3398,623,366.3398,611,354.3398,623,342.3398" style="stroke:#181818;stroke-width:0.5;"></polygon><text fill="#000000" font-family="sans-serif" font-size="11" lengthAdjust="spacing" textLength="20" x="664.5" y="376.5503">yes</text><text fill="#000000" font-family="sans-serif" font-size="11" lengthAdjust="spacing" textLength="75" x="623" y="358.1479">Create Notes</text><polygon fill="#F1F1F1" points="660.5,444.7109,672.5,456.7109,660.5,468.7109,648.5,456.7109,660.5,444.7109" style="stroke:#181818;stroke-width:0.5;"></polygon><polygon fill="#F1F1F1" points="578,474.7109,590,486.7109,578,498.7109,566,486.7109,578,474.7109" style="stroke:#181818;stroke-width:0.5;"></polygon><polygon fill="#F1F1F1" points="487.25,504.7109,499.25,516.7109,487.25,528.7109,475.25,516.7109,487.25,504.7109" style="stroke:#181818;stroke-width:0.5;"></polygon><polygon fill="#F1F1F1" points="351.75,534.7109,363.75,546.7109,351.75,558.7109,339.75,546.7109,351.75,534.7109" style="stroke:#181818;stroke-width:0.5;"></polygon><polygon fill="#F1F1F1" points="209,564.7109,221,576.7109,209,588.7109,197,576.7109,209,564.7109" style="stroke:#181818;stroke-width:0.5;"></polygon><polygon fill="#F1F1F1" points="145,103.9688,273,103.9688,285,115.9688,273,127.9688,145,127.9688,133,115.9688,145,103.9688" style="stroke:#181818;stroke-width:0.5;"></polygon><text fill="#000000" font-family="sans-serif" font-size="11" lengthAdjust="spacing" textLength="20" x="213" y="138.1792">yes</text><text fill="#000000" font-family="sans-serif" font-size="11" lengthAdjust="spacing" textLength="128" x="145" y="119.7769">User is authenticated?</text><polygon fill="#F1F1F1" points="209,608.7109,221,620.7109,209,632.7109,197,620.7109,209,608.7109" style="stroke:#181818;stroke-width:0.5;"></polygon><rect fill="#F1F1F1" height="33.9688" rx="12.5" ry="12.5" style="stroke:#181818;stroke-width:0.5;" width="63" x="177.5" y="652.7109"></rect><text fill="#000000" font-family="sans-serif" font-size="12" lengthAdjust="spacing" textLength="43" x="187.5" y="673.8496">Logout</text><ellipse cx="209" cy="717.6797" fill="none" rx="11" ry="11" style="stroke:#222222;stroke-width:1.0;"></ellipse><ellipse cx="209" cy="717.6797" fill="#222222" rx="6" ry="6" style="stroke:#222222;stroke-width:1.0;"></ellipse><line style="stroke:#181818;stroke-width:1.0;" x1="209" x2="209" y1="30" y2="50"></line><polygon fill="#181818" points="205,40,209,50,213,40,209,44" style="stroke:#181818;stroke-width:1.0;"></polygon><line style="stroke:#181818;stroke-width:1.0;" x1="660.5" x2="660.5" y1="366.3398" y2="390.7422"></line><polygon fill="#181818" points="656.5,380.7422,660.5,390.7422,664.5,380.7422,660.5,384.7422" style="stroke:#181818;stroke-width:1.0;"></polygon><line style="stroke:#181818;stroke-width:1.0;" x1="710" x2="722" y1="354.3398" y2="354.3398"></line><polygon fill="#181818" points="718,397.7266,722,407.7266,726,397.7266,722,401.7266" style="stroke:#181818;stroke-width:1.0;"></polygon><line style="stroke:#181818;stroke-width:1.0;" x1="722" x2="722" y1="354.3398" y2="456.7109"></line><line style="stroke:#181818;stroke-width:1.0;" x1="722" x2="672.5" y1="456.7109" y2="456.7109"></line><polygon fill="#181818" points="682.5,452.7109,672.5,456.7109,682.5,460.7109,678.5,456.7109" style="stroke:#181818;stroke-width:1.0;"></polygon><line style="stroke:#181818;stroke-width:1.0;" x1="660.5" x2="660.5" y1="424.7109" y2="444.7109"></line><polygon fill="#181818" points="656.5,434.7109,660.5,444.7109,664.5,434.7109,660.5,438.7109" style="stroke:#181818;stroke-width:1.0;"></polygon><line style="stroke:#181818;stroke-width:1.0;" x1="505.5" x2="495.5" y1="320.3398" y2="320.3398"></line><line style="stroke:#181818;stroke-width:1.0;" x1="495.5" x2="495.5" y1="320.3398" y2="342.3398"></line><polygon fill="#181818" points="491.5,332.3398,495.5,342.3398,499.5,332.3398,495.5,336.3398" style="stroke:#181818;stroke-width:1.0;"></polygon><line style="stroke:#181818;stroke-width:1.0;" x1="650.5" x2="660.5" y1="320.3398" y2="320.3398"></line><line style="stroke:#181818;stroke-width:1.0;" x1="660.5" x2="660.5" y1="320.3398" y2="342.3398"></line><polygon fill="#181818" points="656.5,332.3398,660.5,342.3398,664.5,332.3398,660.5,336.3398" style="stroke:#181818;stroke-width:1.0;"></polygon><line style="stroke:#181818;stroke-width:1.0;" x1="495.5" x2="495.5" y1="376.3086" y2="486.7109"></line><line style="stroke:#181818;stroke-width:1.0;" x1="495.5" x2="566" y1="486.7109" y2="486.7109"></line><polygon fill="#181818" points="556,482.7109,566,486.7109,556,490.7109,560,486.7109" style="stroke:#181818;stroke-width:1.0;"></polygon><line style="stroke:#181818;stroke-width:1.0;" x1="660.5" x2="660.5" y1="468.7109" y2="486.7109"></line><line style="stroke:#181818;stroke-width:1.0;" x1="660.5" x2="590" y1="486.7109" y2="486.7109"></line><polygon fill="#181818" points="600,482.7109,590,486.7109,600,490.7109,596,486.7109" style="stroke:#181818;stroke-width:1.0;"></polygon><line style="stroke:#181818;stroke-width:1.0;" x1="435.75" x2="396.5" y1="286.3398" y2="286.3398"></line><line style="stroke:#181818;stroke-width:1.0;" x1="396.5" x2="396.5" y1="286.3398" y2="308.3398"></line><polygon fill="#181818" points="392.5,298.3398,396.5,308.3398,400.5,298.3398,396.5,302.3398" style="stroke:#181818;stroke-width:1.0;"></polygon><line style="stroke:#181818;stroke-width:1.0;" x1="538.75" x2="578" y1="286.3398" y2="286.3398"></line><line style="stroke:#181818;stroke-width:1.0;" x1="578" x2="578" y1="286.3398" y2="308.3398"></line><polygon fill="#181818" points="574,298.3398,578,308.3398,582,298.3398,578,302.3398" style="stroke:#181818;stroke-width:1.0;"></polygon><line style="stroke:#181818;stroke-width:1.0;" x1="396.5" x2="396.5" y1="342.3086" y2="516.7109"></line><line style="stroke:#181818;stroke-width:1.0;" x1="396.5" x2="475.25" y1="516.7109" y2="516.7109"></line><polygon fill="#181818" points="465.25,512.7109,475.25,516.7109,465.25,520.7109,469.25,516.7109" style="stroke:#181818;stroke-width:1.0;"></polygon><line style="stroke:#181818;stroke-width:1.0;" x1="578" x2="578" y1="498.7109" y2="516.7109"></line><line style="stroke:#181818;stroke-width:1.0;" x1="578" x2="499.25" y1="516.7109" y2="516.7109"></line><polygon fill="#181818" points="509.25,512.7109,499.25,516.7109,509.25,520.7109,505.25,516.7109" style="stroke:#181818;stroke-width:1.0;"></polygon><line style="stroke:#181818;stroke-width:1.0;" x1="226.25" x2="216.25" y1="252.3398" y2="252.3398"></line><line style="stroke:#181818;stroke-width:1.0;" x1="216.25" x2="216.25" y1="252.3398" y2="274.3398"></line><polygon fill="#181818" points="212.25,264.3398,216.25,274.3398,220.25,264.3398,216.25,268.3398" style="stroke:#181818;stroke-width:1.0;"></polygon><line style="stroke:#181818;stroke-width:1.0;" x1="477.25" x2="487.25" y1="252.3398" y2="252.3398"></line><line style="stroke:#181818;stroke-width:1.0;" x1="487.25" x2="487.25" y1="252.3398" y2="274.3398"></line><polygon fill="#181818" points="483.25,264.3398,487.25,274.3398,491.25,264.3398,487.25,268.3398" style="stroke:#181818;stroke-width:1.0;"></polygon><line style="stroke:#181818;stroke-width:1.0;" x1="216.25" x2="216.25" y1="308.3086" y2="546.7109"></line><line style="stroke:#181818;stroke-width:1.0;" x1="216.25" x2="339.75" y1="546.7109" y2="546.7109"></line><polygon fill="#181818" points="329.75,542.7109,339.75,546.7109,329.75,550.7109,333.75,546.7109" style="stroke:#181818;stroke-width:1.0;"></polygon><line style="stroke:#181818;stroke-width:1.0;" x1="487.25" x2="487.25" y1="528.7109" y2="546.7109"></line><line style="stroke:#181818;stroke-width:1.0;" x1="487.25" x2="363.75" y1="546.7109" y2="546.7109"></line><polygon fill="#181818" points="373.75,542.7109,363.75,546.7109,373.75,550.7109,369.75,546.7109" style="stroke:#181818;stroke-width:1.0;"></polygon><line style="stroke:#181818;stroke-width:1.0;" x1="153" x2="67" y1="218.3398" y2="218.3398"></line><line style="stroke:#181818;stroke-width:1.0;" x1="67" x2="67" y1="218.3398" y2="240.3398"></line><polygon fill="#181818" points="63,230.3398,67,240.3398,71,230.3398,67,234.3398" style="stroke:#181818;stroke-width:1.0;"></polygon><line style="stroke:#181818;stroke-width:1.0;" x1="265" x2="351.75" y1="218.3398" y2="218.3398"></line><line style="stroke:#181818;stroke-width:1.0;" x1="351.75" x2="351.75" y1="218.3398" y2="240.3398"></line><polygon fill="#181818" points="347.75,230.3398,351.75,240.3398,355.75,230.3398,351.75,234.3398" style="stroke:#181818;stroke-width:1.0;"></polygon><line style="stroke:#181818;stroke-width:1.0;" x1="67" x2="67" y1="274.3086" y2="576.7109"></line><line style="stroke:#181818;stroke-width:1.0;" x1="67" x2="197" y1="576.7109" y2="576.7109"></line><polygon fill="#181818" points="187,572.7109,197,576.7109,187,580.7109,191,576.7109" style="stroke:#181818;stroke-width:1.0;"></polygon><line style="stroke:#181818;stroke-width:1.0;" x1="351.75" x2="351.75" y1="558.7109" y2="576.7109"></line><line style="stroke:#181818;stroke-width:1.0;" x1="351.75" x2="221" y1="576.7109" y2="576.7109"></line><polygon fill="#181818" points="231,572.7109,221,576.7109,231,580.7109,227,576.7109" style="stroke:#181818;stroke-width:1.0;"></polygon><line style="stroke:#181818;stroke-width:1.0;" x1="209" x2="209" y1="186.3398" y2="206.3398"></line><polygon fill="#181818" points="205,196.3398,209,206.3398,213,196.3398,209,200.3398" style="stroke:#181818;stroke-width:1.0;"></polygon><line style="stroke:#181818;stroke-width:1.0;" x1="209" x2="209" y1="127.9688" y2="152.3711"></line><polygon fill="#181818" points="205,142.3711,209,152.3711,213,142.3711,209,146.3711" style="stroke:#181818;stroke-width:1.0;"></polygon><line style="stroke:#181818;stroke-width:1.0;" x1="285" x2="740" y1="115.9688" y2="115.9688"></line><polygon fill="#181818" points="736,355.2422,740,365.2422,744,355.2422,740,359.2422" style="stroke:#181818;stroke-width:1.0;"></polygon><line style="stroke:#181818;stroke-width:1.0;" x1="740" x2="740" y1="115.9688" y2="620.7109"></line><line style="stroke:#181818;stroke-width:1.0;" x1="740" x2="221" y1="620.7109" y2="620.7109"></line><polygon fill="#181818" points="231,616.7109,221,620.7109,231,624.7109,227,620.7109" style="stroke:#181818;stroke-width:1.0;"></polygon><line style="stroke:#181818;stroke-width:1.0;" x1="209" x2="209" y1="588.7109" y2="608.7109"></line><polygon fill="#181818" points="205,598.7109,209,608.7109,213,598.7109,209,602.7109" style="stroke:#181818;stroke-width:1.0;"></polygon><line style="stroke:#181818;stroke-width:1.0;" x1="209" x2="209" y1="83.9688" y2="103.9688"></line><polygon fill="#181818" points="205,93.9688,209,103.9688,213,93.9688,209,97.9688" style="stroke:#181818;stroke-width:1.0;"></polygon><line style="stroke:#181818;stroke-width:1.0;" x1="209" x2="209" y1="632.7109" y2="652.7109"></line><polygon fill="#181818" points="205,642.7109,209,652.7109,213,642.7109,209,646.7109" style="stroke:#181818;stroke-width:1.0;"></polygon><line style="stroke:#181818;stroke-width:1.0;" x1="209" x2="209" y1="686.6797" y2="706.6797"></line><polygon fill="#181818" points="205,696.6797,209,706.6797,213,696.6797,209,700.6797" style="stroke:#181818;stroke-width:1.0;"></polygon><!--SRC=[TP71JiCm38RlVGeVkrTe3cWK2I4XD3J1FRJU4gd4K-nGbQV7IOj08rmSsx__pqh2OgCqtGjZX4Sw-s0QVuAsr9x19d4On0zMSBpPGQwWNP1t3K3twd66EylkZMmSZRQozpRIp0WzfSXuPL7JVXYGUPEp1oUTRWEjUYOSSS91u62NTrqEzxfyjekI8gMpWwD4V_bBLlOXKe5lJbFw__9xPmNs3pLGaMOlJlKQPUFGz87mdFod1cJn5BX2KrwUCLjvJLfPVKIz9ZoHO9sXb2AQNnqCepyrjUed_yxMSusTVZKbVP-6XIvV]--></g></svg>