<svg xmlns="http://www.w3.org/2000/svg" version="1.1" xmlns:xlink="http://www.w3.org/1999/xlink" xmlns:svgjs="http://svgjs.dev/svgjs" viewBox="0 0 2400 800"><defs><linearGradient x1="50%" y1="0%" x2="50%" y2="100%" id="sssurf-grad"><stop stop-color="#fda4af" stop-opacity="1" offset="0%"></stop><stop stop-color="#fff1f2" stop-opacity="1" offset="100%"></stop></linearGradient></defs><g fill="url(#sssurf-grad)" transform="matrix(1,0,0,1,0,-525.4878845214844)"><path d="M 0 327.7024319092915 Q 342.85714285714283 450 342.85714285714283 310.94034570051963 Q 685.7142857142857 450 685.7142857142857 320.3586772592279 Q 1028.5714285714284 450 1028.5714285714284 306.91037968998256 Q 1371.4285714285713 450 1371.4285714285713 302.975745296305 Q 1714.2857142857142 450 1714.2857142857142 334.40903881296623 Q 2057.142857142857 450 2057.142857142857 329.85185629958994 Q 2400 450 2400 313.4676675584832 L 2400 800 L 0 800 L 0 318.6494254632598 Z" transform="matrix(1,0,0,1,0,82)" opacity="0.05"></path><path d="M 0 327.7024319092915 Q 342.85714285714283 450 342.85714285714283 310.94034570051963 Q 685.7142857142857 450 685.7142857142857 320.3586772592279 Q 1028.5714285714284 450 1028.5714285714284 306.91037968998256 Q 1371.4285714285713 450 1371.4285714285713 302.975745296305 Q 1714.2857142857142 450 1714.2857142857142 334.40903881296623 Q 2057.142857142857 450 2057.142857142857 329.85185629958994 Q 2400 450 2400 313.4676675584832 L 2400 800 L 0 800 L 0 318.6494254632598 Z" transform="matrix(1,0,0,1,0,164)" opacity="0.13"></path><path d="M 0 327.7024319092915 Q 342.85714285714283 450 342.85714285714283 310.94034570051963 Q 685.7142857142857 450 685.7142857142857 320.3586772592279 Q 1028.5714285714284 450 1028.5714285714284 306.91037968998256 Q 1371.4285714285713 450 1371.4285714285713 302.975745296305 Q 1714.2857142857142 450 1714.2857142857142 334.40903881296623 Q 2057.142857142857 450 2057.142857142857 329.85185629958994 Q 2400 450 2400 313.4676675584832 L 2400 800 L 0 800 L 0 318.6494254632598 Z" transform="matrix(1,0,0,1,0,246)" opacity="0.21"></path><path d="M 0 327.7024319092915 Q 342.85714285714283 450 342.85714285714283 310.94034570051963 Q 685.7142857142857 450 685.7142857142857 320.3586772592279 Q 1028.5714285714284 450 1028.5714285714284 306.91037968998256 Q 1371.4285714285713 450 1371.4285714285713 302.975745296305 Q 1714.2857142857142 450 1714.2857142857142 334.40903881296623 Q 2057.142857142857 450 2057.142857142857 329.85185629958994 Q 2400 450 2400 313.4676675584832 L 2400 800 L 0 800 L 0 318.6494254632598 Z" transform="matrix(1,0,0,1,0,328)" opacity="0.29"></path><path d="M 0 327.7024319092915 Q 342.85714285714283 450 342.85714285714283 310.94034570051963 Q 685.7142857142857 450 685.7142857142857 320.3586772592279 Q 1028.5714285714284 450 1028.5714285714284 306.91037968998256 Q 1371.4285714285713 450 1371.4285714285713 302.975745296305 Q 1714.2857142857142 450 1714.2857142857142 334.40903881296623 Q 2057.142857142857 450 2057.142857142857 329.85185629958994 Q 2400 450 2400 313.4676675584832 L 2400 800 L 0 800 L 0 318.6494254632598 Z" transform="matrix(1,0,0,1,0,410)" opacity="0.37"></path><path d="M 0 327.7024319092915 Q 342.85714285714283 450 342.85714285714283 310.94034570051963 Q 685.7142857142857 450 685.7142857142857 320.3586772592279 Q 1028.5714285714284 450 1028.5714285714284 306.91037968998256 Q 1371.4285714285713 450 1371.4285714285713 302.975745296305 Q 1714.2857142857142 450 1714.2857142857142 334.40903881296623 Q 2057.142857142857 450 2057.142857142857 329.85185629958994 Q 2400 450 2400 313.4676675584832 L 2400 800 L 0 800 L 0 318.6494254632598 Z" transform="matrix(1,0,0,1,0,492)" opacity="0.45"></path><path d="M 0 327.7024319092915 Q 342.85714285714283 450 342.85714285714283 310.94034570051963 Q 685.7142857142857 450 685.7142857142857 320.3586772592279 Q 1028.5714285714284 450 1028.5714285714284 306.91037968998256 Q 1371.4285714285713 450 1371.4285714285713 302.975745296305 Q 1714.2857142857142 450 1714.2857142857142 334.40903881296623 Q 2057.142857142857 450 2057.142857142857 329.85185629958994 Q 2400 450 2400 313.4676675584832 L 2400 800 L 0 800 L 0 318.6494254632598 Z" transform="matrix(1,0,0,1,0,574)" opacity="0.53"></path><path d="M 0 327.7024319092915 Q 342.85714285714283 450 342.85714285714283 310.94034570051963 Q 685.7142857142857 450 685.7142857142857 320.3586772592279 Q 1028.5714285714284 450 1028.5714285714284 306.91037968998256 Q 1371.4285714285713 450 1371.4285714285713 302.975745296305 Q 1714.2857142857142 450 1714.2857142857142 334.40903881296623 Q 2057.142857142857 450 2057.142857142857 329.85185629958994 Q 2400 450 2400 313.4676675584832 L 2400 800 L 0 800 L 0 318.6494254632598 Z" transform="matrix(1,0,0,1,0,656)" opacity="0.60"></path><path d="M 0 327.7024319092915 Q 342.85714285714283 450 342.85714285714283 310.94034570051963 Q 685.7142857142857 450 685.7142857142857 320.3586772592279 Q 1028.5714285714284 450 1028.5714285714284 306.91037968998256 Q 1371.4285714285713 450 1371.4285714285713 302.975745296305 Q 1714.2857142857142 450 1714.2857142857142 334.40903881296623 Q 2057.142857142857 450 2057.142857142857 329.85185629958994 Q 2400 450 2400 313.4676675584832 L 2400 800 L 0 800 L 0 318.6494254632598 Z" transform="matrix(1,0,0,1,0,738)" opacity="0.68"></path><path d="M 0 327.7024319092915 Q 342.85714285714283 450 342.85714285714283 310.94034570051963 Q 685.7142857142857 450 685.7142857142857 320.3586772592279 Q 1028.5714285714284 450 1028.5714285714284 306.91037968998256 Q 1371.4285714285713 450 1371.4285714285713 302.975745296305 Q 1714.2857142857142 450 1714.2857142857142 334.40903881296623 Q 2057.142857142857 450 2057.142857142857 329.85185629958994 Q 2400 450 2400 313.4676675584832 L 2400 800 L 0 800 L 0 318.6494254632598 Z" transform="matrix(1,0,0,1,0,820)" opacity="0.76"></path><path d="M 0 327.7024319092915 Q 342.85714285714283 450 342.85714285714283 310.94034570051963 Q 685.7142857142857 450 685.7142857142857 320.3586772592279 Q 1028.5714285714284 450 1028.5714285714284 306.91037968998256 Q 1371.4285714285713 450 1371.4285714285713 302.975745296305 Q 1714.2857142857142 450 1714.2857142857142 334.40903881296623 Q 2057.142857142857 450 2057.142857142857 329.85185629958994 Q 2400 450 2400 313.4676675584832 L 2400 800 L 0 800 L 0 318.6494254632598 Z" transform="matrix(1,0,0,1,0,902)" opacity="0.84"></path><path d="M 0 327.7024319092915 Q 342.85714285714283 450 342.85714285714283 310.94034570051963 Q 685.7142857142857 450 685.7142857142857 320.3586772592279 Q 1028.5714285714284 450 1028.5714285714284 306.91037968998256 Q 1371.4285714285713 450 1371.4285714285713 302.975745296305 Q 1714.2857142857142 450 1714.2857142857142 334.40903881296623 Q 2057.142857142857 450 2057.142857142857 329.85185629958994 Q 2400 450 2400 313.4676675584832 L 2400 800 L 0 800 L 0 318.6494254632598 Z" transform="matrix(1,0,0,1,0,984)" opacity="0.92"></path><path d="M 0 327.7024319092915 Q 342.85714285714283 450 342.85714285714283 310.94034570051963 Q 685.7142857142857 450 685.7142857142857 320.3586772592279 Q 1028.5714285714284 450 1028.5714285714284 306.91037968998256 Q 1371.4285714285713 450 1371.4285714285713 302.975745296305 Q 1714.2857142857142 450 1714.2857142857142 334.40903881296623 Q 2057.142857142857 450 2057.142857142857 329.85185629958994 Q 2400 450 2400 313.4676675584832 L 2400 800 L 0 800 L 0 318.6494254632598 Z" transform="matrix(1,0,0,1,0,1066)" opacity="1.00"></path></g></svg>